HIERARCHY
ROOT Hips
{
	OFFSET 0.000000 0.000000 0.000000
	CHANNELS 6 Xposition Yposition Zposition Xrotation Yrotation Zrotation
	JOINT LeftUpLeg_virtual
	{
		OFFSET 0.000000 0.000000 0.000000
		CHANNELS 3 Xrotation Yrotation Zrotation
		JOINT LeftUpLeg
		{
			OFFSET 13.026900 -6.336304 -1.092800
			CHANNELS 3 Xrotation Yrotation Zrotation
			JOINT LeftLeg
			{
				OFFSET 0.524474 -46.096886 9.782700
				CHANNELS 3 Xrotation Yrotation Zrotation
				JOINT LeftFoot
				{
					OFFSET -0.524474 -53.427422 -12.948200
					CHANNELS 3 Xrotation Yrotation Zrotation
					JOINT LeftToeBase
					{
						OFFSET 0.192200 -14.009700 16.364100
						CHANNELS 3 Xrotation Yrotation Zrotation
						JOINT LeftToe_End
						{
							OFFSET -1.784700 -0.561700 9.474800
							CHANNELS 3 Xrotation Yrotation Zrotation
							End Site
							{
								OFFSET 0 0 0
							}
						}
					}
				}
			}
		}
	}
	JOINT RightUpLeg_virtual
	{
		OFFSET 0.000000 0.000000 0.000000
		CHANNELS 3 Xrotation Yrotation Zrotation
		JOINT RightUpLeg
		{
			OFFSET -12.883000 -6.336304 -1.092800
			CHANNELS 3 Xrotation Yrotation Zrotation
			JOINT RightLeg
			{
				OFFSET -0.524587 -46.096825 9.782800
				CHANNELS 3 Xrotation Yrotation Zrotation
				JOINT RightFoot
				{
					OFFSET 0.524587 -53.427383 -12.948300
					CHANNELS 3 Xrotation Yrotation Zrotation
					JOINT RightToeBase
					{
						OFFSET -0.192200 -14.009700 16.364100
						CHANNELS 3 Xrotation Yrotation Zrotation
						JOINT RightToe_End
						{
							OFFSET 1.784700 -0.561700 9.474800
							CHANNELS 3 Xrotation Yrotation Zrotation
							End Site
							{
								OFFSET 0 0 0
							}
						}
					}
				}
			}
		}
	}
	JOINT Spine_virtual
	{
		OFFSET 0.000000 0.000000 0.000000
		CHANNELS 3 Xrotation Yrotation Zrotation
		JOINT Spine
		{
			OFFSET 0.072000 7.257294 -0.789700
			CHANNELS 3 Xrotation Yrotation Zrotation
			JOINT Spine1
			{
				OFFSET 0.000000 12.508769 -0.658067
				CHANNELS 3 Xrotation Yrotation Zrotation
				JOINT Spine1_split
				{
					OFFSET 0.000000 12.508769 -0.658067
					CHANNELS 3 Xrotation Yrotation Zrotation
					JOINT Spine2
					{
						OFFSET 0.000000 12.508769 -0.658067
						CHANNELS 3 Xrotation Yrotation Zrotation
						JOINT Neck_virtual
						{
							OFFSET 0.000000 0.000000 0.000000
							CHANNELS 3 Xrotation Yrotation Zrotation
							JOINT Neck
							{
								OFFSET 0.000000 14.033295 7.520400
								CHANNELS 3 Xrotation Yrotation Zrotation
								JOINT Head
								{
									OFFSET 0.000000 8.198502 5.703100
									CHANNELS 3 Xrotation Yrotation Zrotation
									JOINT HeadTop_End
									{
										OFFSET 0.000000 17.760803 13.332701
										CHANNELS 3 Xrotation Yrotation Zrotation
										End Site
										{
											OFFSET 0 0 0
										}
									}
								}
							}
						}
						JOINT LeftShoulder_virtual
						{
							OFFSET 0.000000 0.000000 0.000000
							CHANNELS 3 Xrotation Yrotation Zrotation
							JOINT LeftShoulder
							{
								OFFSET 6.292450 5.785301 -0.669000
								CHANNELS 3 Xrotation Yrotation Zrotation
								JOINT LeftShoulder_split
								{
									OFFSET 6.292450 5.785301 -0.669000
									CHANNELS 3 Xrotation Yrotation Zrotation
									JOINT LeftArm
									{
										OFFSET 13.907140 -6.093903 1.965100
										CHANNELS 3 Xrotation Yrotation Zrotation
										JOINT LeftForeArm
										{
											OFFSET 34.140198 0.000000 0.000000
											CHANNELS 3 Xrotation Yrotation Zrotation
											JOINT LeftHand
											{
												OFFSET 40.960209 0.000000 0.000000
												CHANNELS 3 Xrotation Yrotation Zrotation
												End Site
												{
													OFFSET 0 0 0
												}
											}
										}
									}
								}
							}
						}
						JOINT RightShoulder_virtual
						{
							OFFSET 0.000000 0.000000 0.000000
							CHANNELS 3 Xrotation Yrotation Zrotation
							JOINT RightShoulder
							{
								OFFSET -6.292450 5.785301 -0.669000
								CHANNELS 3 Xrotation Yrotation Zrotation
								JOINT RightShoulder_split
								{
									OFFSET -6.292450 5.785301 -0.669000
									CHANNELS 3 Xrotation Yrotation Zrotation
									JOINT RightArm
									{
										OFFSET -13.907140 -6.093903 1.965100
										CHANNELS 3 Xrotation Yrotation Zrotation
										JOINT RightForeArm
										{
											OFFSET -34.140198 0.000000 0.000000
											CHANNELS 3 Xrotation Yrotation Zrotation
											JOINT RightHand
											{
												OFFSET -40.960209 0.000000 0.000000
												CHANNELS 3 Xrotation Yrotation Zrotation
												End Site
												{
													OFFSET 0 0 0
												}
											}
										}
									}
								}
							}
						}
					}
				}
			}
		}
	}
}
MOTION
Frames: 8
Frame Time: 0.03333333
-6.017726 109.513397 -11.198689 0.000000 0.000000 0.000000 -4.116781 -8.041761 2.588183 -22.505747 6.322493 6.130816 31.411070 8.824966 -1.309894 -4.743229 0.086503 -3.024643 0.584859 0.038203 -0.166399 0.000000 0.000000 0.000000 -3.617156 -5.850328 2.766996 -9.308116 -14.273068 -13.672536 28.207124 -0.830979 -4.179418 -11.860407 -3.218565 12.631100 -5.462927 -0.182510 0.835887 0.000000 0.000000 0.000000 -5.354797 -4.316680 0.990835 8.934337 3.314113 -3.926499 1.850367 0.529012 -1.135004 0.714449 0.937330 0.103439 0.000000 0.000000 0.000000 1.167515 0.076790 -0.152373 -4.762390 -1.076990 1.530266 8.023159 3.997119 -4.435005 0.000000 0.000000 0.000000 0.631005 0.413542 -0.870494 0.335931 3.277790 0.257017 -2.510446 -2.766400 0.369065 -13.041478 -4.919786 -65.525714 -1.760945 -34.394094 0.971843 0.000000 0.000000 0.000000 2.403600 0.199495 -0.609197 4.533807 12.236101 -5.794948 -0.942372 0.506494 -1.831419 -1.146141 2.619654 76.274314 -0.579616 36.270128 -0.059149 0.000000 0.000000 0.000000 
-6.239323 109.508179 -11.466244 0.000000 0.000000 0.000000 -3.860863 -7.773103 2.692301 -22.536534 6.356677 6.071599 31.454848 8.809422 -1.302923 -4.686858 0.186340 -3.134409 0.667005 0.010956 -0.124028 0.000000 0.000000 0.000000 -3.471977 -5.907455 2.837857 -9.565974 -14.289034 -13.696495 28.204742 -0.987486 -4.217932 -12.172778 -3.203012 12.605725 -5.151562 -0.143212 0.741842 0.000000 0.000000 0.000000 -4.948699 -4.520379 1.208464 8.981636 3.215694 -4.099397 1.828488 0.458211 -1.160159 0.722698 1.117629 -0.072892 0.000000 0.000000 0.000000 1.231087 0.043432 -0.172564 -4.773215 -0.919705 1.664558 7.793925 4.170636 -4.736994 0.000000 0.000000 0.000000 0.722836 0.352364 -0.866114 0.368219 3.152362 0.255558 -2.401583 -3.092356 0.440568 -13.449046 -4.882794 -65.454399 -1.929239 -35.063425 0.751684 0.000000 0.000000 0.000000 2.426670 0.135050 -0.619141 4.514361 12.396144 -5.710526 -0.986980 0.126034 -1.825977 -0.807416 2.459299 76.215861 -0.662351 36.399909 0.070032 0.000000 0.000000 0.000000 
-6.483881 109.547737 -11.811237 0.000000 0.000000 0.000000 -3.520007 -7.601246 2.611796 -22.760417 6.470794 6.220798 31.317350 8.820733 -1.336718 -4.570726 0.581590 -3.376528 0.820948 -0.017006 -0.130463 0.000000 0.000000 0.000000 -3.222060 -6.194175 2.732436 -10.080603 -14.193329 -13.630473 28.323171 -1.004887 -4.195369 -12.461245 -3.183218 12.957238 -4.902244 -0.122827 0.667489 0.000000 0.000000 0.000000 -4.336546 -5.050983 1.357716 9.206922 3.126518 -4.256498 1.814816 0.424460 -1.211449 0.789184 1.370302 -0.150663 0.000000 0.000000 0.000000 1.308176 0.059806 -0.245980 -4.814438 -0.648585 1.794993 7.095401 4.525934 -5.021094 0.000000 0.000000 0.000000 0.836839 0.353314 -0.870606 0.384562 2.941382 0.354620 -2.159493 -3.216860 0.459777 -13.949808 -5.022863 -65.305720 -1.754790 -35.657064 0.739391 0.000000 0.000000 0.000000 2.461814 0.111313 -0.636851 4.448238 12.464317 -5.712785 -0.968661 -0.034212 -1.829949 -0.249407 2.009374 76.178001 -0.757118 36.767335 0.166404 0.000000 0.000000 0.000000 
-6.682233 109.593742 -12.136814 0.000000 0.000000 0.000000 -3.110323 -7.586177 2.355824 -23.124821 6.723663 6.574814 30.992199 8.971990 -1.454150 -4.470535 1.320490 -3.579678 1.039812 -0.040392 -0.207519 0.000000 0.000000 0.000000 -2.876076 -6.707569 2.446012 -10.867921 -14.016774 -13.471171 28.666782 -0.898233 -4.113473 -12.739495 -3.137993 13.503920 -4.621108 -0.120875 0.651477 0.000000 0.000000 0.000000 -3.654685 -5.841430 1.393807 9.588173 3.046457 -4.378085 1.828880 0.436716 -1.257806 0.854163 1.614494 -0.170006 0.000000 0.000000 0.000000 1.432189 0.133766 -0.341123 -4.891109 -0.317496 1.856762 5.941382 4.946307 -5.217569 0.000000 0.000000 0.000000 0.996376 0.419745 -0.858646 0.388956 2.673643 0.541897 -1.965329 -3.071823 0.383288 -14.612676 -5.328514 -65.250546 -1.266543 -35.776439 0.951019 0.000000 0.000000 0.000000 2.534909 0.137498 -0.641375 4.346714 12.463013 -5.881492 -0.973425 0.040289 -1.842265 0.397876 1.432687 76.228681 -0.810318 37.215382 0.184879 0.000000 0.000000 0.000000 
-6.861450 109.644119 -12.428776 0.000000 0.000000 0.000000 -2.599254 -7.895346 1.976858 -23.556324 7.018729 7.104442 30.657444 9.279963 -1.695222 -4.437284 2.398579 -3.690549 1.297343 -0.051969 -0.334769 0.000000 0.000000 0.000000 -2.418398 -7.484889 2.040491 -12.009397 -13.725831 -13.324134 29.315011 -0.689760 -3.971889 -13.012765 -2.995477 14.033747 -4.075652 -0.126850 0.724254 0.000000 0.000000 0.000000 -2.989940 -6.837305 1.303653 10.123134 2.981605 -4.438012 1.881962 0.496202 -1.273341 0.851630 1.677101 -0.060038 0.000000 0.000000 0.000000 1.612451 0.268927 -0.422409 -5.031376 0.026189 1.802270 4.363001 5.308670 -5.291152 0.000000 0.000000 0.000000 1.200258 0.542788 -0.808339 0.382840 2.347526 0.725290 -1.921075 -2.876623 0.339167 -15.502958 -5.712008 -65.264466 -0.599487 -35.245292 1.320800 0.000000 0.000000 0.000000 2.649746 0.215289 -0.614354 4.229493 12.415832 -6.320217 -0.958413 0.268031 -1.733301 1.031089 0.934541 76.299538 -0.770034 37.569319 0.085499 0.000000 0.000000 0.000000 
-7.028727 109.664070 -12.796314 0.000000 0.000000 0.000000 -1.999538 -8.604257 1.550126 -24.004428 7.219002 7.725464 30.528261 9.691425 -2.057347 -4.506931 3.721260 -3.674490 1.556629 -0.053210 -0.466372 0.000000 0.000000 0.000000 -1.833364 -8.600696 1.603579 -13.645643 -13.322887 -13.311459 30.323687 -0.352705 -3.774587 -13.152926 -2.680944 14.498325 -3.327067 -0.124147 0.865262 0.000000 0.000000 0.000000 -2.420396 -8.035613 1.072110 10.772120 2.925164 -4.424136 1.971963 0.601732 -1.251143 0.695257 1.613999 0.128157 0.000000 0.000000 0.000000 1.844355 0.443542 -0.467379 -5.269125 0.333676 1.618007 2.433850 5.491125 -5.202459 0.000000 0.000000 0.000000 1.456912 0.705940 -0.721379 0.378018 1.992301 0.861374 -1.941341 -2.729098 0.351423 -16.510094 -6.056887 -65.212262 0.024162 -34.056775 1.679624 0.000000 0.000000 0.000000 2.810999 0.327365 -0.555988 4.118690 12.339145 -7.052341 -0.960930 0.596127 -1.480902 1.687111 0.704415 76.358154 -0.594235 37.739643 -0.144316 0.000000 0.000000 0.000000 
-7.181899 109.633919 -13.337185 0.000000 0.000000 0.000000 -1.363982 -9.755131 1.172241 -24.445507 7.159381 8.344685 30.679038 10.080694 -2.505793 -4.700932 5.188310 -3.531095 1.767615 -0.045602 -0.570125 0.000000 0.000000 0.000000 -1.127554 -9.968514 1.234186 -15.833504 -12.741114 -13.476970 31.564254 0.241021 -3.566278 -13.003663 -2.118981 15.145697 -2.749890 -0.101670 0.985065 0.000000 0.000000 0.000000 -1.829095 -9.276963 0.751642 11.525736 2.858453 -4.336167 2.096713 0.739947 -1.210675 0.559022 1.336806 0.286703 0.000000 0.000000 0.000000 2.106479 0.642702 -0.473852 -5.618780 0.569158 1.358330 0.316529 5.502433 -4.994020 0.000000 0.000000 0.000000 1.761838 0.875538 -0.611250 0.385230 1.699552 0.910379 -1.913206 -2.798918 0.523875 -17.339689 -6.284393 -64.862468 0.369999 -32.325653 1.831253 0.000000 0.000000 0.000000 3.012857 0.466805 -0.488624 4.070784 12.284613 -8.001310 -0.927753 0.993706 -1.103764 2.450986 0.670676 76.237725 -0.312077 37.746375 -0.414807 0.000000 0.000000 0.000000 
-7.308906 109.532425 -14.106388 0.000000 0.000000 0.000000 -0.695904 -11.256305 0.920255 -24.932426 6.722902 8.870103 31.061921 10.321519 -2.993121 -4.925471 6.681016 -3.394180 1.893730 -0.034099 -0.644199 0.000000 0.000000 0.000000 -0.297714 -11.446745 1.022527 -18.436600 -11.975265 -13.744764 32.908958 1.126560 -3.385183 -12.579889 -1.343218 16.024314 -2.486280 -0.046156 1.019216 0.000000 0.000000 0.000000 -1.151799 -10.491810 0.433962 12.398954 2.748973 -4.167278 2.235982 0.899964 -1.176864 0.538395 0.964822 0.280233 0.000000 0.000000 0.000000 2.372793 0.843382 -0.453495 -6.068322 0.684889 1.114487 -1.788039 5.324910 -4.727370 0.000000 0.000000 0.000000 2.058122 1.041126 -0.499529 0.396103 1.551278 0.880332 -1.773390 -3.117406 0.855930 -17.569415 -6.357499 -63.929409 0.298278 -30.425474 1.647402 0.000000 0.000000 0.000000 3.237819 0.608756 -0.435041 4.100762 12.290385 -9.055885 -0.711562 1.329053 -0.717309 3.349253 0.468003 75.837933 0.006613 37.692317 -0.648546 0.000000 0.000000 0.000000 
